# xmcd
#
# Track frame offsets:
#	150
#	12285
#	23205
#	33050
#	43370
#	63575
#	83220
#	102833
#	116813
#	128500
#	140283
#	153373
#	162858
#	173538
#	189543
#	205198
#	211903
#	234363
#	248735
#	288585
#	300698
#
# Disc length: 4097 seconds
#
# Revision: 1
# Processed by: cddbd v1.5PL3 Copyright (c) Steve Scherf et al.
# Submitted via: CDex 1.50Beta5
#
DISCID=170fff15
DTITLE=Jean_Joel Barbier[Piano] - Jean Wiener[Piano] - エリックサティ
DYEAR=1900
DGENRE=Classical -> Japanese Classical
TTITLE0=4つのオジーヴ(1886) -第1番
TTITLE1=4つのオジーヴ(1886)-第2番
TTITLE2=4つのオジーヴ(1886)-第3番
TTITLE3=4つのオジーヴ(1886)-第4番
TTITLE4=3つのサラバンド(1887) -第1番
TTITLE5=3つのサラバンド(1887)-第2番
TTITLE6=3つのサラバンド(1887)-第3番
TTITLE7=3つのジムノペディ(1888) -第1番
TTITLE8=3つのジムノペディ(1888)-第2番
TTITLE9=3つのジムノペディ(1888)-第3番
TTITLE10=3つのグノシェンヌ(1890) -第1番
TTITLE11=3つのグノシェンヌ(1890)-第2番
TTITLE12=3つのグノシェンヌ(1890)-第3番
TTITLE13=3つの新グノシェンヌ(1889/97)-第4番
TTITLE14=3つの新グノシェンヌ(1889/97)-第5番
TTITLE15=3つの新グノシェンヌ(1889/97)-第6番
TTITLE16=おまえが欲しい <ワルツ> (1900/02)
TTITLE17=始まりの様式で [梨の形をした3つの小曲<4手連弾>(1903)]
TTITLE18=同じものの延長 ?ゆっくりと ?奔放に ?粗野に
TTITLE19=つけ加え
TTITLE20=言いなおし
EXTD=
EXTT0=
EXTT1=
EXTT2=
EXTT3=
EXTT4=
EXTT5=
EXTT6=
EXTT7=
EXTT8=
EXTT9=
EXTT10=
EXTT11=
EXTT12=
EXTT13=
EXTT14=
EXTT15=
EXTT16=
EXTT17=
EXTT18=
EXTT19=
EXTT20=
PLAYORDER=
